<svg width="36" height="33" viewBox="0 0 36 33" fill="none" xmlns="http://www.w3.org/2000/svg">
<path d="M0.703125 27.5781C0.703125 29.1302 1.13021 30.3177 1.98438 31.1406C2.83854 31.974 4.07812 32.3906 5.70312 32.3906H30.3594C31.9844 32.3906 33.2135 31.974 34.0469 31.1406C34.8802 30.3177 35.2969 29.1042 35.2969 27.5V5.15625C35.2969 3.5625 34.8802 2.34896 34.0469 1.51562C33.2135 0.682292 31.9844 0.265625 30.3594 0.265625H12.5C10.875 0.265625 9.64583 0.682292 8.8125 1.51562C7.97917 2.34896 7.5625 3.5625 7.5625 5.15625V11.5781H4.39062C3.23438 11.5781 2.32812 11.8906 1.67188 12.5156C1.02604 13.1406 0.703125 14.0052 0.703125 15.1094V27.5781ZM3.84375 27.3906V15.6719C3.84375 15.3802 3.92708 15.151 4.09375 14.9844C4.26042 14.8073 4.49479 14.7188 4.79688 14.7188H7.5625V27.3906C7.5625 27.9323 7.38021 28.3802 7.01562 28.7344C6.66146 29.0885 6.22396 29.2656 5.70312 29.2656C5.17188 29.2656 4.72917 29.0833 4.375 28.7188C4.02083 28.3646 3.84375 27.9219 3.84375 27.3906ZM10.2656 29.2656C10.5365 28.7448 10.6719 28.1458 10.6719 27.4688V5.46875C10.6719 4.78125 10.8438 4.26562 11.1875 3.92188C11.5417 3.57812 12.0573 3.40625 12.7344 3.40625H30.125C30.8021 3.40625 31.3125 3.57812 31.6562 3.92188C32 4.26562 32.1719 4.78125 32.1719 5.46875V27.2031C32.1719 27.8906 32 28.4062 31.6562 28.75C31.3125 29.0938 30.8021 29.2656 30.125 29.2656H10.2656ZM14.3906 9.64062H28.4844C28.776 9.64062 29.0156 9.54167 29.2031 9.34375C29.401 9.14583 29.5 8.90104 29.5 8.60938C29.5 8.32812 29.401 8.09375 29.2031 7.90625C29.0156 7.70833 28.776 7.60938 28.4844 7.60938H14.3906C14.099 7.60938 13.8542 7.70833 13.6562 7.90625C13.4583 8.09375 13.3594 8.32812 13.3594 8.60938C13.3594 8.90104 13.4583 9.14583 13.6562 9.34375C13.8542 9.54167 14.099 9.64062 14.3906 9.64062ZM14.3906 14.7188H28.4844C28.776 14.7188 29.0156 14.6198 29.2031 14.4219C29.401 14.224 29.5 13.9844 29.5 13.7031C29.5 13.4115 29.401 13.1667 29.2031 12.9688C29.0156 12.7708 28.776 12.6719 28.4844 12.6719H14.3906C14.099 12.6719 13.8542 12.7708 13.6562 12.9688C13.4583 13.1667 13.3594 13.4115 13.3594 13.7031C13.3594 13.9844 13.4583 14.224 13.6562 14.4219C13.8542 14.6198 14.099 14.7188 14.3906 14.7188ZM15.2031 24.875H18.8281C19.401 24.875 19.8542 24.7135 20.1875 24.3906C20.5312 24.0573 20.7031 23.599 20.7031 23.0156V19.625C20.7031 19.0521 20.5312 18.599 20.1875 18.2656C19.8542 17.9219 19.401 17.75 18.8281 17.75H15.2031C14.6302 17.75 14.1771 17.9219 13.8438 18.2656C13.5104 18.599 13.3438 19.0521 13.3438 19.625V23.0156C13.3438 23.599 13.5104 24.0573 13.8438 24.3906C14.1771 24.7135 14.6302 24.875 15.2031 24.875ZM23.2969 19.7969H28.4688C28.7708 19.7969 29.0156 19.7031 29.2031 19.5156C29.401 19.3177 29.5 19.0729 29.5 18.7812C29.5 18.5 29.401 18.2604 29.2031 18.0625C29.0156 17.8542 28.7708 17.75 28.4688 17.75H23.2969C23.0052 17.75 22.7604 17.8542 22.5625 18.0625C22.3646 18.2604 22.2656 18.5 22.2656 18.7812C22.2656 19.0729 22.3646 19.3177 22.5625 19.5156C22.7604 19.7031 23.0052 19.7969 23.2969 19.7969ZM23.2969 24.875H28.4688C28.7708 24.875 29.0156 24.7812 29.2031 24.5938C29.401 24.3958 29.5 24.1562 29.5 23.875C29.5 23.5938 29.401 23.3542 29.2031 23.1562C29.0156 22.9583 28.7708 22.8594 28.4688 22.8594H23.2969C23.0052 22.8594 22.7604 22.9583 22.5625 23.1562C22.3646 23.3542 22.2656 23.5938 22.2656 23.875C22.2656 24.1562 22.3646 24.3958 22.5625 24.5938C22.7604 24.7812 23.0052 24.875 23.2969 24.875Z" fill="#21C3A4"/>
</svg>
