<svg width="34" height="32" viewBox="0 0 34 32" fill="none" xmlns="http://www.w3.org/2000/svg">
<path d="M17.9219 7.79688C17.5469 7.79688 17.2292 7.92708 16.9688 8.1875C16.7083 8.44792 16.5781 8.76042 16.5781 9.125V17.0781C16.5781 17.2552 16.6094 17.4271 16.6719 17.5938C16.7344 17.7604 16.8333 17.9323 16.9688 18.1094L20.4375 22.7031C20.7188 23.0573 21.0365 23.2656 21.3906 23.3281C21.7552 23.3906 22.1042 23.3021 22.4375 23.0625C22.75 22.8438 22.9167 22.5521 22.9375 22.1875C22.9688 21.8229 22.8698 21.4792 22.6406 21.1562L17.8594 14.75L19.25 18.9844V9.125C19.25 8.76042 19.1198 8.44792 18.8594 8.1875C18.599 7.92708 18.2865 7.79688 17.9219 7.79688ZM18.4688 31.6875C20.5729 31.6875 22.5521 31.2865 24.4062 30.4844C26.2604 29.6823 27.8906 28.5729 29.2969 27.1562C30.7135 25.75 31.8177 24.1198 32.6094 22.2656C33.4115 20.4115 33.8125 18.4323 33.8125 16.3281C33.8125 14.224 33.4115 12.25 32.6094 10.4062C31.8177 8.55208 30.7135 6.91667 29.2969 5.5C27.8906 4.08333 26.2604 2.97917 24.4062 2.1875C22.5521 1.38542 20.5729 0.984375 18.4688 0.984375C16.375 0.984375 14.401 1.38021 12.5469 2.17188C10.7031 2.96354 9.07292 4.0625 7.65625 5.46875C6.25 6.875 5.14062 8.5 4.32812 10.3438C3.52604 12.1875 3.11979 14.1562 3.10938 16.25H6.32812C6.33854 14.5833 6.66146 13.0208 7.29688 11.5625C7.93229 10.0938 8.80208 8.8125 9.90625 7.71875C11.0208 6.625 12.3073 5.77083 13.7656 5.15625C15.224 4.53125 16.7917 4.21875 18.4688 4.21875C20.1458 4.21875 21.7188 4.53125 23.1875 5.15625C24.6562 5.78125 25.9427 6.64583 27.0469 7.75C28.1615 8.85417 29.0312 10.1406 29.6562 11.6094C30.2812 13.0781 30.5938 14.651 30.5938 16.3281C30.5938 18.0052 30.2812 19.5781 29.6562 21.0469C29.0312 22.5156 28.1615 23.8073 27.0469 24.9219C25.9427 26.0365 24.6562 26.9062 23.1875 27.5312C21.7188 28.1562 20.1458 28.4635 18.4688 28.4531C17.1771 28.4531 15.9479 28.2656 14.7812 27.8906C13.625 27.5156 12.5573 26.9844 11.5781 26.2969C10.6094 25.599 9.75521 24.7812 9.01562 23.8438C8.68229 23.4792 8.30208 23.25 7.875 23.1562C7.44792 23.0625 7.04688 23.1615 6.67188 23.4531C6.30729 23.7135 6.10417 24.0729 6.0625 24.5312C6.03125 24.9792 6.19271 25.4167 6.54688 25.8438C7.44271 27 8.52083 28.0156 9.78125 28.8906C11.0417 29.7656 12.4115 30.4479 13.8906 30.9375C15.3698 31.4375 16.8958 31.6875 18.4688 31.6875ZM1.35938 13.25C0.963542 13.25 0.661458 13.3438 0.453125 13.5312C0.255208 13.7083 0.161458 13.9375 0.171875 14.2188C0.182292 14.4896 0.296875 14.7708 0.515625 15.0625L4.20312 20.1562C4.46354 20.5 4.76562 20.6719 5.10938 20.6719C5.45312 20.6719 5.75 20.5 6 20.1562L9.70312 15.0625C9.91146 14.7812 10.0156 14.5 10.0156 14.2188C10.026 13.9375 9.93229 13.7083 9.73438 13.5312C9.54688 13.3438 9.25521 13.25 8.85938 13.25H1.35938Z" fill="#21C3A4"/>
</svg>
