<svg width="32" height="27" viewBox="0 0 32 27" fill="none" xmlns="http://www.w3.org/2000/svg">
<path d="M21.5625 26.4531C22.2812 26.4531 22.9375 26.276 23.5312 25.9219C24.125 25.5781 24.5938 25.1042 24.9375 24.5C25.2917 23.9062 25.4688 23.2552 25.4688 22.5469C25.4688 21.8281 25.2917 21.1719 24.9375 20.5781C24.5938 19.9844 24.125 19.5156 23.5312 19.1719C22.9479 18.8177 22.2917 18.6406 21.5625 18.6406C20.8542 18.6406 20.1979 18.8177 19.5938 19.1719C19 19.5156 18.526 19.9844 18.1719 20.5781C17.8281 21.1719 17.6562 21.8281 17.6562 22.5469C17.6562 23.2552 17.8281 23.9062 18.1719 24.5C18.526 25.1042 19 25.5781 19.5938 25.9219C20.1979 26.276 20.8542 26.4531 21.5625 26.4531ZM21.5625 24.3906C21.0521 24.3906 20.6146 24.2135 20.25 23.8594C19.8958 23.4948 19.7188 23.0573 19.7188 22.5469C19.7188 22.026 19.8958 21.5885 20.25 21.2344C20.6146 20.8802 21.0521 20.7031 21.5625 20.7031C22.0938 20.7031 22.5365 20.8802 22.8906 21.2344C23.2448 21.5885 23.4219 22.026 23.4219 22.5469C23.4219 23.0573 23.2448 23.4948 22.8906 23.8594C22.5365 24.2135 22.0938 24.3906 21.5625 24.3906ZM18.9844 21.0469H2.07812C1.67188 21.0469 1.32292 21.1979 1.03125 21.5C0.75 21.7917 0.609375 22.1406 0.609375 22.5469C0.609375 22.9427 0.75 23.2917 1.03125 23.5938C1.32292 23.8854 1.67188 24.0312 2.07812 24.0312H18.9844V21.0469ZM29.9688 21.0469H24.2969V24.0312H29.9688C30.3646 24.0312 30.6979 23.8854 30.9688 23.5938C31.25 23.2917 31.3906 22.9427 31.3906 22.5469C31.3906 22.1302 31.25 21.776 30.9688 21.4844C30.6979 21.1927 30.3646 21.0469 29.9688 21.0469ZM10.6094 17.1719C11.3281 17.1719 11.9792 17 12.5625 16.6562C13.1562 16.3021 13.6302 15.8281 13.9844 15.2344C14.3385 14.6406 14.5156 13.9844 14.5156 13.2656C14.5156 12.5573 14.3385 11.9062 13.9844 11.3125C13.6302 10.7083 13.1562 10.2344 12.5625 9.89062C11.9792 9.53646 11.3281 9.35938 10.6094 9.35938C9.89062 9.35938 9.23438 9.53646 8.64062 9.89062C8.05729 10.2344 7.58854 10.7083 7.23438 11.3125C6.88021 11.9062 6.70312 12.5573 6.70312 13.2656C6.70312 13.9844 6.88021 14.6406 7.23438 15.2344C7.58854 15.8281 8.05729 16.3021 8.64062 16.6562C9.23438 17 9.89062 17.1719 10.6094 17.1719ZM10.6094 15.1094C10.099 15.1094 9.66146 14.9323 9.29688 14.5781C8.94271 14.2135 8.76562 13.776 8.76562 13.2656C8.76562 12.7448 8.94271 12.3073 9.29688 11.9531C9.66146 11.599 10.099 11.4219 10.6094 11.4219C11.1406 11.4219 11.5781 11.599 11.9219 11.9531C12.276 12.3073 12.4531 12.7448 12.4531 13.2656C12.4531 13.776 12.276 14.2135 11.9219 14.5781C11.5781 14.9323 11.1406 15.1094 10.6094 15.1094ZM2.04688 11.7812C1.65104 11.7812 1.3125 11.9271 1.03125 12.2188C0.75 12.5104 0.609375 12.8594 0.609375 13.2656C0.609375 13.6719 0.75 14.026 1.03125 14.3281C1.3125 14.6198 1.65104 14.7656 2.04688 14.7656H7.95312V11.7812H2.04688ZM29.9219 11.7812H13.1562V14.7656H29.9219C30.3385 14.7656 30.6875 14.6198 30.9688 14.3281C31.25 14.026 31.3906 13.6719 31.3906 13.2656C31.3906 12.849 31.25 12.5 30.9688 12.2188C30.6875 11.9271 30.3385 11.7812 29.9219 11.7812ZM21.5625 7.89062C22.2812 7.89062 22.9375 7.71354 23.5312 7.35938C24.125 7.00521 24.5938 6.53646 24.9375 5.95312C25.2917 5.35938 25.4688 4.70312 25.4688 3.98438C25.4688 3.26562 25.2917 2.61458 24.9375 2.03125C24.5938 1.4375 24.125 0.963542 23.5312 0.609375C22.9375 0.255208 22.2812 0.078125 21.5625 0.078125C20.8542 0.078125 20.1979 0.255208 19.5938 0.609375C19 0.963542 18.526 1.4375 18.1719 2.03125C17.8281 2.61458 17.6562 3.26562 17.6562 3.98438C17.6562 4.70312 17.8281 5.35938 18.1719 5.95312C18.526 6.53646 19 7.00521 19.5938 7.35938C20.1979 7.71354 20.8542 7.89062 21.5625 7.89062ZM21.5625 5.82812C21.0521 5.82812 20.6146 5.65104 20.25 5.29688C19.8958 4.93229 19.7188 4.48958 19.7188 3.96875C19.7188 3.44792 19.8958 3.01562 20.25 2.67188C20.6146 2.31771 21.0521 2.14062 21.5625 2.14062C22.0938 2.14062 22.5365 2.31771 22.8906 2.67188C23.2448 3.01562 23.4219 3.44792 23.4219 3.96875C23.4219 4.48958 23.2448 4.93229 22.8906 5.29688C22.5365 5.65104 22.0938 5.82812 21.5625 5.82812ZM19.0469 2.5H2.07812C1.67188 2.5 1.32292 2.64583 1.03125 2.9375C0.75 3.22917 0.609375 3.57812 0.609375 3.98438C0.609375 4.39062 0.75 4.74479 1.03125 5.04688C1.32292 5.33854 1.67188 5.48438 2.07812 5.48438H19.0469V2.5ZM29.9688 2.5H24.1406V5.48438H29.9688C30.3646 5.48438 30.6979 5.33854 30.9688 5.04688C31.25 4.74479 31.3906 4.39062 31.3906 3.98438C31.3906 3.56771 31.25 3.21875 30.9688 2.9375C30.6979 2.64583 30.3646 2.5 29.9688 2.5Z" fill="#21C3A4"/>
</svg>
