<svg width="160" height="160" viewBox="0 0 160 160" fill="none" xmlns="http://www.w3.org/2000/svg">
<circle cx="80" cy="80" r="80" fill="#0660FE"/>
<path d="M72.5391 115.109C75.3776 115.109 77.526 114.029 78.9844 111.867L113.242 59.875C113.789 59.0677 114.18 58.2865 114.414 57.5312C114.648 56.75 114.766 56.0078 114.766 55.3047C114.766 53.3776 114.102 51.776 112.773 50.5C111.471 49.1979 109.818 48.5469 107.812 48.5469C106.458 48.5469 105.312 48.8203 104.375 49.3672C103.438 49.9141 102.539 50.8385 101.68 52.1406L72.3828 98.2734L57.6172 80.3047C56.1589 78.5859 54.3359 77.7266 52.1484 77.7266C50.1432 77.7266 48.4766 78.3776 47.1484 79.6797C45.8464 80.9557 45.1953 82.5703 45.1953 84.5234C45.1953 85.4089 45.3385 86.2422 45.625 87.0234C45.9375 87.8047 46.4714 88.625 47.2266 89.4844L66.25 112.219C67.9167 114.146 70.013 115.109 72.5391 115.109Z" fill="white"/>
</svg>
