<svg width="10" height="6" viewBox="0 0 10 6" fill="none" xmlns="http://www.w3.org/2000/svg">
<path d="M4.99512 5.22852C5.08301 5.22852 5.16602 5.21224 5.24414 5.17969C5.32227 5.14388 5.39388 5.09017 5.45898 5.01855L8.95508 1.44922C9.06901 1.33529 9.12598 1.19857 9.12598 1.03906C9.12598 0.928385 9.09831 0.829102 9.04297 0.741211C8.99089 0.650065 8.9209 0.578451 8.83301 0.526367C8.74512 0.474284 8.64583 0.448242 8.53516 0.448242C8.37565 0.448242 8.23405 0.508464 8.11035 0.628906L4.78027 4.04688H5.21484L1.87988 0.628906C1.75944 0.508464 1.61784 0.448242 1.45508 0.448242C1.3444 0.448242 1.24512 0.474284 1.15723 0.526367C1.06934 0.578451 0.999349 0.650065 0.947266 0.741211C0.895182 0.829102 0.869141 0.928385 0.869141 1.03906C0.869141 1.12044 0.883789 1.19531 0.913086 1.26367C0.942383 1.32878 0.984701 1.39062 1.04004 1.44922L4.53125 5.02344C4.67122 5.16016 4.82585 5.22852 4.99512 5.22852Z" fill="#21C3A4"/>
</svg>
