<svg width="10" height="16" viewBox="0 0 10 16" fill="none" xmlns="http://www.w3.org/2000/svg">
<path d="M9.22949 7.99707C9.22949 7.87402 9.20605 7.75977 9.15918 7.6543C9.1123 7.54297 9.03906 7.44043 8.93945 7.34668L2.40918 0.957031C2.24512 0.787109 2.04297 0.702148 1.80273 0.702148C1.63281 0.702148 1.4834 0.740234 1.35449 0.816406C1.22559 0.892578 1.12012 0.995117 1.03809 1.12402C0.961914 1.25293 0.923828 1.40234 0.923828 1.57227C0.923828 1.80664 1.01172 2.01172 1.1875 2.1875L7.12891 7.99707L1.1875 13.8066C1.01172 13.9824 0.923828 14.1875 0.923828 14.4219C0.923828 14.5859 0.961914 14.7324 1.03809 14.8613C1.12012 14.9961 1.22559 15.1016 1.35449 15.1777C1.4834 15.2539 1.63281 15.292 1.80273 15.292C2.04297 15.292 2.24512 15.207 2.40918 15.0371L8.93945 8.64746C9.03906 8.55371 9.1123 8.4541 9.15918 8.34863C9.20605 8.2373 9.22949 8.12012 9.22949 7.99707Z" fill="#F26419"/>
</svg>
