<svg width="14" height="13" viewBox="0 0 14 13" fill="none" xmlns="http://www.w3.org/2000/svg">
<path d="M3.08301 12.4082H10.9102C11.6211 12.4082 12.1589 12.2259 12.5234 11.8613C12.888 11.5013 13.0703 10.9704 13.0703 10.2686V2.41406C13.0703 1.71224 12.888 1.17904 12.5234 0.814453C12.1589 0.44987 11.6211 0.267578 10.9102 0.267578H3.08301C2.37663 0.267578 1.83887 0.44987 1.46973 0.814453C1.10514 1.17448 0.922852 1.70768 0.922852 2.41406V10.2686C0.922852 10.9749 1.10514 11.5081 1.46973 11.8682C1.83887 12.2282 2.37663 12.4082 3.08301 12.4082ZM6.65137 8.85352L4.38184 4.98438C4.29525 4.83854 4.28385 4.69043 4.34766 4.54004C4.41146 4.38509 4.52539 4.30762 4.68945 4.30762H9.3584C9.52246 4.30762 9.63639 4.38281 9.7002 4.5332C9.764 4.67904 9.75033 4.82943 9.65918 4.98438L7.39648 8.85352C7.3099 8.99935 7.18457 9.06999 7.02051 9.06543C6.85645 9.06087 6.7334 8.99023 6.65137 8.85352Z" fill="#808080"/>
</svg>
