<svg width="8" height="9" viewBox="0 0 8 9" fill="none" xmlns="http://www.w3.org/2000/svg">
<path d="M0.416016 8.25391C0.48763 8.32552 0.572266 8.37272 0.669922 8.39551C0.767578 8.42155 0.863607 8.42155 0.958008 8.39551C1.05566 8.37272 1.1403 8.32715 1.21191 8.25879L4 5.46582L6.79297 8.25879C6.89714 8.36296 7.02734 8.41504 7.18359 8.41504C7.33984 8.41829 7.47331 8.36458 7.58398 8.25391C7.69141 8.14323 7.74512 8.00977 7.74512 7.85352C7.74512 7.69727 7.69303 7.56706 7.58887 7.46289L4.7959 4.66992L7.58887 1.88184C7.69303 1.77767 7.74512 1.64746 7.74512 1.49121C7.74837 1.33171 7.69466 1.19824 7.58398 1.09082C7.47331 0.983398 7.33984 0.929688 7.18359 0.929688C7.02734 0.929688 6.89714 0.981771 6.79297 1.08594L4 3.87891L1.21191 1.08594C1.1403 1.01758 1.05566 0.972005 0.958008 0.949219C0.863607 0.923177 0.767578 0.921549 0.669922 0.944336C0.572266 0.967122 0.48763 1.01595 0.416016 1.09082C0.347656 1.16243 0.300456 1.24707 0.274414 1.34473C0.251628 1.44238 0.251628 1.54004 0.274414 1.6377C0.300456 1.7321 0.347656 1.81348 0.416016 1.88184L3.2041 4.66992L0.416016 7.46289C0.347656 7.53125 0.300456 7.61426 0.274414 7.71191C0.248372 7.80632 0.246745 7.90234 0.269531 8C0.295573 8.10091 0.344401 8.18555 0.416016 8.25391Z" fill="#808080"/>
</svg>
