<svg width="20" height="15" viewBox="0 0 20 15" fill="none" xmlns="http://www.w3.org/2000/svg">
<path d="M16.9307 1.24409C15.6558 0.669106 14.2892 0.244118 12.86 0.0024584C12.8473 1.50678e-05 12.8341 0.00158964 12.8223 0.00696438C12.8105 0.0123391 12.8007 0.0212481 12.7942 0.0324575C12.6192 0.339949 12.4242 0.74077 12.2875 1.05743C10.7718 0.830965 9.23089 0.830965 7.71518 1.05743C7.56296 0.706488 7.39131 0.364301 7.20103 0.0324575C7.19458 0.0211101 7.18482 0.0119996 7.17306 0.00634173C7.16129 0.000683867 7.14809 -0.00125231 7.13519 0.000791705C5.7069 0.242451 4.34028 0.667439 3.06448 1.24326C3.0535 1.24786 3.0442 1.25571 3.03781 1.26576C0.444554 5.07815 -0.266258 8.79637 0.0828981 12.4679C0.0838697 12.4769 0.086661 12.4856 0.091102 12.4935C0.095543 12.5014 0.101541 12.5083 0.108731 12.5138C1.62235 13.6158 3.31059 14.4552 5.10275 14.997C5.11525 15.0009 5.12861 15.0009 5.1411 14.997C5.15358 14.9931 5.16461 14.9856 5.17275 14.9754C5.5584 14.4596 5.90014 13.9124 6.19439 13.3396C6.19847 13.3317 6.20083 13.3231 6.20129 13.3143C6.20175 13.3055 6.20032 13.2967 6.19708 13.2884C6.19384 13.2802 6.18887 13.2728 6.18251 13.2667C6.17615 13.2605 6.16855 13.2558 6.16022 13.2529C5.62191 13.0502 5.10032 12.8056 4.60027 12.5213C4.59128 12.5161 4.58371 12.5089 4.57823 12.5001C4.57275 12.4913 4.56954 12.4813 4.56888 12.471C4.56822 12.4607 4.57013 12.4503 4.57445 12.4409C4.57876 12.4315 4.58534 12.4233 4.5936 12.4171C4.6986 12.3396 4.80359 12.2588 4.90359 12.1779C4.91259 12.1707 4.92344 12.166 4.93491 12.1646C4.94639 12.1631 4.95805 12.1648 4.96859 12.1696C8.241 13.6396 11.7851 13.6396 15.0191 12.1696C15.0297 12.1646 15.0415 12.1626 15.0531 12.1639C15.0648 12.1652 15.0758 12.1698 15.085 12.1771C15.185 12.2588 15.2891 12.3396 15.395 12.4171C15.4033 12.4232 15.41 12.4313 15.4144 12.4406C15.4189 12.4499 15.421 12.4602 15.4205 12.4705C15.42 12.4808 15.4169 12.4909 15.4116 12.4997C15.4063 12.5086 15.3988 12.516 15.39 12.5213C14.8916 12.8079 14.3733 13.0504 13.8292 13.2521C13.8208 13.2551 13.8132 13.2599 13.8068 13.2661C13.8005 13.2723 13.7955 13.2798 13.7923 13.2881C13.789 13.2964 13.7876 13.3052 13.7881 13.3141C13.7886 13.323 13.7909 13.3317 13.795 13.3396C14.095 13.9121 14.4383 14.457 14.8158 14.9745C14.8237 14.9851 14.8346 14.9931 14.8471 14.9973C14.8596 15.0014 14.8732 15.0016 14.8858 14.9979C16.681 14.4576 18.372 13.6177 19.8873 12.5138C19.8947 12.5086 19.9009 12.5019 19.9055 12.4941C19.9101 12.4864 19.913 12.4777 19.914 12.4688C20.3306 8.22389 19.2157 4.53566 16.9566 1.26742C16.951 1.2568 16.9419 1.24852 16.9307 1.24409ZM6.68354 10.2322C5.69857 10.2322 4.88609 9.34135 4.88609 8.24889C4.88609 7.15558 5.68274 6.26561 6.68354 6.26561C7.69184 6.26561 8.49682 7.16308 8.48099 8.24889C8.48099 9.34219 7.68435 10.2322 6.68354 10.2322ZM13.3292 10.2322C12.3434 10.2322 11.5317 9.34135 11.5317 8.24889C11.5317 7.15558 12.3275 6.26561 13.3292 6.26561C14.3375 6.26561 15.1425 7.16308 15.1266 8.24889C15.1266 9.34219 14.3383 10.2322 13.3292 10.2322Z" fill="white"/>
</svg>
