<svg width="12" height="11" viewBox="0 0 12 11" fill="none" xmlns="http://www.w3.org/2000/svg">
<path d="M2.77734 10.2061C2.89128 10.2972 3.01823 10.3298 3.1582 10.3037C3.30143 10.2809 3.4528 10.2093 3.6123 10.0889L5.99512 8.33594L8.38281 10.0889C8.54557 10.2093 8.69694 10.2809 8.83691 10.3037C8.98014 10.3298 9.1071 10.2972 9.21777 10.2061C9.33171 10.1214 9.40007 10.0091 9.42285 9.86914C9.44889 9.72917 9.42936 9.56641 9.36426 9.38086L8.42188 6.57812L10.8291 4.85449C10.9886 4.7373 11.1009 4.61523 11.166 4.48828C11.2344 4.36133 11.2441 4.22949 11.1953 4.09277C11.153 3.95931 11.0667 3.86003 10.9365 3.79492C10.8096 3.72982 10.6484 3.69889 10.4531 3.70215L7.50391 3.72168L6.60547 0.899414C6.54362 0.710612 6.46224 0.565755 6.36133 0.464844C6.26042 0.363932 6.13835 0.313477 5.99512 0.313477C5.85514 0.313477 5.7347 0.363932 5.63379 0.464844C5.53288 0.565755 5.4515 0.710612 5.38965 0.899414L4.49609 3.72168L1.54199 3.70215C1.34668 3.69889 1.18555 3.72982 1.05859 3.79492C0.931641 3.86003 0.845378 3.95931 0.799805 4.09277C0.750977 4.22949 0.759115 4.36133 0.824219 4.48828C0.892578 4.61523 1.00814 4.7373 1.1709 4.85449L3.57324 6.57812L2.63086 9.38086C2.56576 9.56641 2.5446 9.72917 2.56738 9.86914C2.59342 10.0091 2.66341 10.1214 2.77734 10.2061Z" fill="#FFCF24"/>
</svg>
