<svg width="30" height="30" viewBox="0 0 30 30" fill="none" xmlns="http://www.w3.org/2000/svg">
<path d="M15 30C23.2843 30 30 23.2843 30 15C30 6.71573 23.2843 0 15 0C6.71573 0 0 6.71573 0 15C0 23.2843 6.71573 30 15 30Z" fill="#00AFCA"/>
<path d="M22.3499 15.5501C21.9999 15.3501 21.5999 15.6001 21.5999 15.9501C21.4499 18.4001 17.1499 19.0501 15.0999 19.0501C13.0499 19.1001 8.64995 18.3501 8.49995 15.9501C8.49995 15.6001 8.09995 15.4001 7.74995 15.5501C6.69995 16.1001 6.34995 17.1501 6.59995 18.2001C7.04995 20.1001 9.39995 21.4501 11.3999 22.0501C11.2499 22.4001 11.1999 22.7501 11.1499 23.1001C11.0999 23.5001 11.6999 23.6501 11.9999 23.4001C13.1499 22.5501 14.9499 22.2001 16.4499 22.2001C17.0999 22.2001 17.0999 21.3001 16.4499 21.3001C15.0999 21.3001 13.6499 21.5501 12.4499 22.1001C12.8999 21.0501 13.9499 20.0001 15.0999 19.9501H15.1499C17.5499 20.0001 21.3999 19.1501 22.3999 16.9001C22.5499 17.3001 22.5499 17.7501 22.3999 18.1501C21.8999 19.7501 20.1499 20.4001 18.4999 20.8501C17.8999 21.0001 18.1499 21.9001 18.7499 21.7001C20.8499 21.1501 22.4999 20.3001 23.3499 18.4001C23.7499 17.4001 23.3499 16.2001 22.3499 15.5501ZM11.7999 21.2001C10.1499 20.7501 8.89995 19.9501 7.89995 18.6501C7.49995 18.1001 7.34995 17.3501 7.69995 16.8001C8.44995 18.5501 10.8999 19.4501 13.0999 19.7501C12.5999 20.1501 12.1499 20.6501 11.7999 21.2001Z" fill="#FFE62E"/>
<path d="M14.9999 16.35C17.1262 16.35 18.8499 14.6263 18.8499 12.5C18.8499 10.3737 17.1262 8.65002 14.9999 8.65002C12.8736 8.65002 11.1499 10.3737 11.1499 12.5C11.1499 14.6263 12.8736 16.35 14.9999 16.35Z" fill="#FFE62E"/>
<path d="M15 8.15005C15.25 8.15005 15.2999 8.00005 15.2999 7.85005C15.2999 7.60005 15 6.55005 15 6.55005C15 6.55005 14.7 7.65005 14.7 7.85005C14.7 8.00005 14.75 8.15005 15 8.15005Z" fill="#FFE62E"/>
<path d="M16.65 8.44998C16.85 8.54998 17 8.44998 17.05 8.29998C17.15 8.09998 17.25 6.94998 17.25 6.94998C17.25 6.94998 16.55 7.84998 16.45 8.04998C16.45 8.19998 16.45 8.39998 16.65 8.44998ZM19.05 14.15C18.95 14.35 19.05 14.5 19.2 14.55C19.4 14.65 20.55 14.75 20.55 14.75C20.55 14.75 19.65 14.05 19.45 13.95C19.3 13.95 19.1 13.95 19.05 14.15ZM13.35 16.55C13.15 16.45 13 16.55 12.95 16.7C12.85 16.9 12.75 18.05 12.75 18.05C12.75 18.05 13.45 17.15 13.55 16.95C13.55 16.8 13.55 16.6 13.35 16.55ZM10.95 10.85C11.05 10.65 10.95 10.5 10.8 10.45C10.6 10.35 9.44998 10.25 9.44998 10.25C9.44998 10.25 10.35 10.95 10.55 11.05C10.7 11.05 10.9 11.05 10.95 10.85ZM18.1 9.39998C18.25 9.54998 18.45 9.49998 18.55 9.39998C18.7 9.24998 19.25 8.24998 19.25 8.24998C19.25 8.24998 18.25 8.79998 18.1 8.94998C17.95 9.09998 17.95 9.24998 18.1 9.39998ZM18.1 15.6C17.95 15.75 18 15.9 18.1 16.05C18.25 16.2 19.25 16.75 19.25 16.75C19.25 16.75 18.7 15.75 18.55 15.6C18.4 15.45 18.25 15.45 18.1 15.6ZM11.9 15.6C11.75 15.45 11.55 15.5 11.45 15.6C11.3 15.75 10.75 16.75 10.75 16.75C10.75 16.75 11.75 16.2 11.9 16.05C12.05 15.9 12.05 15.75 11.9 15.6ZM11.9 9.39998C12.05 9.24998 12 9.04998 11.9 8.94998C11.75 8.79998 10.75 8.24998 10.75 8.24998C10.75 8.24998 11.3 9.24998 11.45 9.39998C11.6 9.54998 11.75 9.54998 11.9 9.39998ZM19.05 10.85C19.15 11.05 19.3 11.1 19.45 11C19.65 10.9 20.55 10.2 20.55 10.2C20.55 10.2 19.4 10.35 19.2 10.4C19.05 10.5 18.95 10.6 19.05 10.85ZM16.65 16.55C16.45 16.65 16.4 16.8 16.5 16.95C16.6 17.15 17.3 18.05 17.3 18.05C17.3 18.05 17.15 16.9 17.1 16.7C17 16.55 16.9 16.45 16.65 16.55ZM10.95 14.15C10.85 13.95 10.7 13.9 10.55 14C10.35 14.1 9.44998 14.8 9.44998 14.8C9.44998 14.8 10.6 14.65 10.8 14.6C10.95 14.5 11.05 14.4 10.95 14.15ZM13.35 8.44998C13.55 8.34998 13.6 8.19998 13.5 8.04998C13.4 7.84998 12.7 6.94998 12.7 6.94998C12.7 6.94998 12.85 8.04998 12.9 8.29998C13 8.44998 13.1 8.54998 13.35 8.44998ZM15.85 8.19998C16.05 8.24998 16.2 8.09998 16.2 7.94998C16.25 7.74998 16.15 6.59998 16.15 6.59998C16.15 6.59998 15.65 7.59998 15.6 7.84998C15.55 7.99998 15.65 8.14998 15.85 8.19998ZM19.3 13.35C19.25 13.55 19.4 13.7 19.55 13.7C19.75 13.75 20.9 13.65 20.9 13.65C20.9 13.65 19.9 13.15 19.65 13.1C19.5 13.05 19.35 13.15 19.3 13.35ZM14.15 16.8C13.95 16.75 13.8 16.9 13.8 17.05C13.75 17.25 13.85 18.4 13.85 18.4C13.85 18.4 14.35 17.4 14.4 17.15C14.45 17 14.35 16.85 14.15 16.8ZM10.7 11.65C10.75 11.4 10.6 11.3 10.45 11.3C10.25 11.25 9.09998 11.35 9.09998 11.35C9.09998 11.35 10.1 11.85 10.35 11.9C10.5 11.95 10.65 11.85 10.7 11.65ZM17.45 8.84998C17.65 8.94998 17.8 8.89998 17.9 8.74998C18.05 8.54998 18.35 7.49998 18.35 7.49998C18.35 7.49998 17.5 8.24998 17.35 8.39998C17.25 8.54998 17.25 8.74998 17.45 8.84998ZM18.65 14.95C18.55 15.15 18.6 15.3 18.75 15.4C18.95 15.55 20 15.85 20 15.85C20 15.85 19.25 15 19.1 14.85C18.95 14.75 18.75 14.75 18.65 14.95ZM12.55 16.15C12.35 16.05 12.2 16.1 12.1 16.25C12 16.4 11.65 17.5 11.65 17.5C11.65 17.5 12.5 16.75 12.65 16.6C12.75 16.45 12.75 16.25 12.55 16.15ZM11.35 10.05C11.45 9.84998 11.4 9.69998 11.25 9.59998C11.1 9.49998 9.99998 9.14998 9.99998 9.14998C9.99998 9.14998 10.75 9.99998 10.9 10.15C11.05 10.25 11.25 10.25 11.35 10.05ZM18.65 10.05C18.8 10.25 18.95 10.25 19.1 10.15C19.3 9.99998 20 9.14998 20 9.14998C20 9.14998 18.9 9.49998 18.75 9.59998C18.6 9.74998 18.5 9.89998 18.65 10.05ZM17.45 16.15C17.25 16.3 17.25 16.45 17.35 16.6C17.5 16.8 18.35 17.5 18.35 17.5C18.35 17.5 18 16.4 17.9 16.25C17.75 16.1 17.6 16 17.45 16.15ZM11.35 14.95C11.2 14.75 11.05 14.75 10.9 14.85C10.7 15 9.99998 15.85 9.99998 15.85C9.99998 15.85 11.1 15.5 11.25 15.4C11.4 15.25 11.5 15.1 11.35 14.95ZM12.55 8.84998C12.75 8.69998 12.75 8.54998 12.65 8.39998C12.5 8.19998 11.65 7.49998 11.65 7.49998C11.65 7.49998 12 8.59998 12.1 8.74998C12.25 8.89998 12.4 8.99998 12.55 8.84998ZM19.3 11.65C19.35 11.85 19.5 11.95 19.65 11.9C19.85 11.85 20.9 11.35 20.9 11.35C20.9 11.35 19.75 11.25 19.55 11.3C19.35 11.3 19.25 11.4 19.3 11.65ZM15.85 16.8C15.65 16.85 15.55 17 15.6 17.15C15.65 17.35 16.15 18.4 16.15 18.4C16.15 18.4 16.25 17.25 16.2 17.05C16.2 16.85 16.1 16.75 15.85 16.8ZM10.7 13.35C10.65 13.15 10.5 13.05 10.35 13.1C10.15 13.15 9.09998 13.65 9.09998 13.65C9.09998 13.65 10.25 13.75 10.45 13.7C10.65 13.7 10.75 13.6 10.7 13.35ZM14.15 8.19998C14.35 8.14998 14.45 7.99998 14.4 7.84998C14.35 7.64998 13.85 6.59998 13.85 6.59998C13.85 6.59998 13.75 7.74998 13.8 7.94998C13.8 8.14998 13.9 8.24998 14.15 8.19998Z" fill="#FFE62E"/>
</svg>
