<svg width="12" height="13" viewBox="0 0 12 13" fill="none" xmlns="http://www.w3.org/2000/svg">
<path d="M1.71387 12.2988H10.2861C10.6553 12.2988 10.9447 12.2168 11.1543 12.0527C11.3639 11.8887 11.4688 11.6585 11.4688 11.3623C11.4688 10.9476 11.3411 10.5124 11.0859 10.0566C10.8353 9.59635 10.4707 9.16797 9.99219 8.77148C9.51367 8.37044 8.93717 8.0446 8.2627 7.79395C7.59277 7.54329 6.83854 7.41797 6 7.41797C5.16146 7.41797 4.40495 7.54329 3.73047 7.79395C3.05599 8.0446 2.47949 8.37044 2.00098 8.77148C1.52702 9.16797 1.16243 9.59635 0.907227 10.0566C0.652018 10.5124 0.524414 10.9476 0.524414 11.3623C0.524414 11.6585 0.629232 11.8887 0.838867 12.0527C1.0485 12.2168 1.34017 12.2988 1.71387 12.2988ZM6 6.27637C6.47396 6.27637 6.90918 6.14876 7.30566 5.89355C7.70215 5.63835 8.01888 5.29427 8.25586 4.86133C8.4974 4.42383 8.61816 3.93392 8.61816 3.3916C8.61816 2.86296 8.4974 2.38672 8.25586 1.96289C8.01888 1.53906 7.70215 1.2041 7.30566 0.958008C6.90918 0.711914 6.47396 0.588867 6 0.588867C5.5306 0.588867 5.09538 0.714193 4.69434 0.964844C4.29785 1.21549 3.97884 1.55501 3.7373 1.9834C3.50033 2.40723 3.38411 2.88118 3.38867 3.40527C3.38867 3.93848 3.50716 4.42383 3.74414 4.86133C3.98112 5.29427 4.29785 5.63835 4.69434 5.89355C5.09082 6.14876 5.52604 6.27637 6 6.27637Z" fill="white"/>
</svg>
