<svg width="24" height="24" viewBox="0 0 24 24" fill="none" xmlns="http://www.w3.org/2000/svg">
<path d="M12 23.3867C13.5547 23.3867 15.0195 23.0859 16.3945 22.4844C17.7695 21.8906 18.9805 21.0703 20.0273 20.0234C21.0742 18.9766 21.8945 17.7695 22.4883 16.4023C23.082 15.0273 23.3789 13.5586 23.3789 11.9961C23.3789 10.4414 23.0781 8.97656 22.4766 7.60156C21.8828 6.22656 21.0625 5.01562 20.0156 3.96875C18.9688 2.92188 17.7578 2.10156 16.3828 1.50781C15.0078 0.914062 13.543 0.617188 11.9883 0.617188C10.4336 0.617188 8.96875 0.914062 7.59375 1.50781C6.22656 2.10156 5.01562 2.92188 3.96094 3.96875C2.91406 5.01562 2.09375 6.22656 1.5 7.60156C0.90625 8.97656 0.609375 10.4414 0.609375 11.9961C0.609375 13.5586 0.90625 15.0273 1.5 16.4023C2.10156 17.7695 2.92578 18.9766 3.97266 20.0234C5.01953 21.0703 6.22656 21.8906 7.59375 22.4844C8.96875 23.0859 10.4375 23.3867 12 23.3867ZM7.59375 13.0391C7.25781 13.0391 6.98047 12.9492 6.76172 12.7695C6.55078 12.5898 6.44531 12.3398 6.44531 12.0195C6.44531 11.6914 6.55078 11.4375 6.76172 11.2578C6.97266 11.0703 7.25 10.9766 7.59375 10.9766H16.4297C16.7734 10.9766 17.0469 11.0703 17.25 11.2578C17.4531 11.4375 17.5547 11.6914 17.5547 12.0195C17.5547 12.3398 17.4492 12.5898 17.2383 12.7695C17.0273 12.9492 16.7578 13.0391 16.4297 13.0391H7.59375Z" fill="#21C4A4"/>
</svg>
