<svg width="12" height="7" viewBox="0 0 12 7" fill="none" xmlns="http://www.w3.org/2000/svg">
<path d="M5.99316 6.91992C6.11621 6.91992 6.23242 6.89714 6.3418 6.85156C6.45117 6.80143 6.55143 6.72624 6.64258 6.62598L11.5371 1.62891C11.6966 1.4694 11.7764 1.27799 11.7764 1.05469C11.7764 0.89974 11.7376 0.760742 11.6602 0.637695C11.5872 0.510091 11.4893 0.409831 11.3662 0.336914C11.2432 0.263997 11.1042 0.227539 10.9492 0.227539C10.7259 0.227539 10.5277 0.311849 10.3545 0.480469L5.69238 5.26562H6.30078L1.63184 0.480469C1.46322 0.311849 1.26497 0.227539 1.03711 0.227539C0.882161 0.227539 0.743164 0.263997 0.620117 0.336914C0.49707 0.409831 0.399089 0.510091 0.326172 0.637695C0.253255 0.760742 0.216797 0.89974 0.216797 1.05469C0.216797 1.16862 0.237305 1.27344 0.27832 1.36914C0.319336 1.46029 0.378581 1.54688 0.456055 1.62891L5.34375 6.63281C5.53971 6.82422 5.75618 6.91992 5.99316 6.91992Z" fill="#808080"/>
</svg>
