<svg width="24" height="24" viewBox="0 0 24 24" fill="none" xmlns="http://www.w3.org/2000/svg">
<path d="M12 23.3867C13.5547 23.3867 15.0195 23.0859 16.3945 22.4844C17.7695 21.8906 18.9805 21.0703 20.0273 20.0234C21.0742 18.9766 21.8945 17.7695 22.4883 16.4023C23.082 15.0273 23.3789 13.5586 23.3789 11.9961C23.3789 10.4414 23.0781 8.97656 22.4766 7.60156C21.8828 6.22656 21.0625 5.01562 20.0156 3.96875C18.9688 2.92188 17.7578 2.10156 16.3828 1.50781C15.0078 0.914062 13.543 0.617188 11.9883 0.617188C10.4336 0.617188 8.96875 0.914062 7.59375 1.50781C6.22656 2.10156 5.01562 2.92188 3.96094 3.96875C2.91406 5.01562 2.09375 6.22656 1.5 7.60156C0.90625 8.97656 0.609375 10.4414 0.609375 11.9961C0.609375 13.5586 0.90625 15.0273 1.5 16.4023C2.10156 17.7695 2.92578 18.9766 3.97266 20.0234C5.01953 21.0703 6.22656 21.8906 7.59375 22.4844C8.96875 23.0859 10.4375 23.3867 12 23.3867ZM6.57422 12.0078C6.57422 11.7031 6.67188 11.4531 6.86719 11.2578C7.0625 11.0625 7.3125 10.9648 7.61719 10.9648H10.9688V7.625C10.9688 7.32031 11.0625 7.07031 11.25 6.875C11.4375 6.67969 11.6797 6.58203 11.9766 6.58203C12.2891 6.58203 12.5391 6.67969 12.7266 6.875C12.9219 7.0625 13.0195 7.3125 13.0195 7.625V10.9648H16.3828C16.6875 10.9648 16.9336 11.0625 17.1211 11.2578C17.3164 11.4531 17.4141 11.7031 17.4141 12.0078C17.4141 12.3047 17.3164 12.5508 17.1211 12.7461C16.9258 12.9336 16.6797 13.0273 16.3828 13.0273H13.0195V16.3789C13.0195 16.6758 12.9219 16.9219 12.7266 17.1172C12.5391 17.3125 12.2891 17.4102 11.9766 17.4102C11.6797 17.4102 11.4375 17.3125 11.25 17.1172C11.0625 16.9219 10.9688 16.6758 10.9688 16.3789V13.0273H7.61719C7.3125 13.0273 7.0625 12.9336 6.86719 12.7461C6.67188 12.5508 6.57422 12.3047 6.57422 12.0078Z" fill="#21C4A4"/>
</svg>
