<svg width="12" height="12" viewBox="0 0 12 12" fill="none" xmlns="http://www.w3.org/2000/svg">
<path d="M0.551758 6.33105C0.551758 6.5498 0.629232 6.73665 0.78418 6.8916C0.939128 7.04655 1.1237 7.12402 1.33789 7.12402H5.21387V10.9932C5.21387 11.2074 5.28906 11.3919 5.43945 11.5469C5.5944 11.7018 5.78125 11.7793 6 11.7793C6.21875 11.7793 6.40332 11.7018 6.55371 11.5469C6.70866 11.3919 6.78613 11.2074 6.78613 10.9932V7.12402H10.6621C10.8763 7.12402 11.0586 7.04655 11.209 6.8916C11.3639 6.73665 11.4414 6.5498 11.4414 6.33105C11.4414 6.11686 11.3639 5.93229 11.209 5.77734C11.0586 5.6224 10.8763 5.54492 10.6621 5.54492H6.78613V1.67578C6.78613 1.46159 6.70866 1.27702 6.55371 1.12207C6.40332 0.962565 6.21875 0.882812 6 0.882812C5.78125 0.882812 5.5944 0.962565 5.43945 1.12207C5.28906 1.27702 5.21387 1.46159 5.21387 1.67578V5.54492H1.33789C1.1237 5.54492 0.939128 5.6224 0.78418 5.77734C0.629232 5.93229 0.551758 6.11686 0.551758 6.33105Z" fill="#21C3A4"/>
</svg>
