<svg width="120" height="120" viewBox="0 0 120 120" fill="none" xmlns="http://www.w3.org/2000/svg">
<circle cx="60" cy="60" r="60" fill="#F66262"/>
<path d="M38.1152 82.9043C38.7207 83.5098 39.4336 83.9102 40.2539 84.1055C41.0742 84.3008 41.8848 84.3008 42.6855 84.1055C43.4863 83.9102 44.1699 83.5293 44.7363 82.9629L60 67.6992L75.2051 82.9629C76.084 83.8418 77.1777 84.2715 78.4863 84.252C79.8145 84.252 80.9277 83.793 81.8262 82.875C82.7246 81.9766 83.1738 80.873 83.1738 79.5645C83.1934 78.2559 82.7637 77.1523 81.8848 76.2539L66.6797 61.0195L81.8848 45.8145C82.7637 44.9355 83.2031 43.8418 83.2031 42.5332C83.2031 41.2051 82.7441 40.0918 81.8262 39.1934C80.9277 38.2949 79.8145 37.8359 78.4863 37.8164C77.1777 37.7969 76.084 38.2363 75.2051 39.1348L60 54.3398L44.7363 39.1055C44.1699 38.5391 43.4863 38.168 42.6855 37.9922C41.8848 37.7969 41.0742 37.7969 40.2539 37.9922C39.4336 38.168 38.7207 38.5586 38.1152 39.1641C37.5098 39.7891 37.1094 40.5117 36.9141 41.332C36.7188 42.1328 36.7188 42.9434 36.9141 43.7637C37.1094 44.5645 37.4902 45.2383 38.0566 45.7852L53.291 61.0195L38.0566 76.2832C37.4902 76.8496 37.1094 77.5332 36.9141 78.334C36.7188 79.1348 36.7188 79.9453 36.9141 80.7656C37.1094 81.5859 37.5098 82.2988 38.1152 82.9043Z" fill="white"/>
</svg>
