<svg width="12" height="15" viewBox="0 0 12 15" fill="none" xmlns="http://www.w3.org/2000/svg">
<path d="M0.196289 8.78906C0.196289 9.5957 0.34668 10.3499 0.647461 11.0518C0.948242 11.749 1.36296 12.3643 1.8916 12.8975C2.4248 13.4307 3.04232 13.8477 3.74414 14.1484C4.44596 14.4492 5.19792 14.5996 6 14.5996C6.80664 14.5996 7.55859 14.4492 8.25586 14.1484C8.95768 13.8477 9.5752 13.4307 10.1084 12.8975C10.6416 12.3643 11.0563 11.749 11.3525 11.0518C11.6533 10.3499 11.8037 9.5957 11.8037 8.78906C11.8037 8.57943 11.7376 8.41081 11.6055 8.2832C11.4779 8.15104 11.3115 8.08496 11.1064 8.08496C10.9105 8.08496 10.751 8.15104 10.6279 8.2832C10.5049 8.41081 10.4434 8.57943 10.4434 8.78906C10.4434 9.4043 10.3271 9.98079 10.0947 10.5186C9.86686 11.0563 9.55013 11.5303 9.14453 11.9404C8.73893 12.346 8.26725 12.6628 7.72949 12.8906C7.19629 13.1185 6.61979 13.2324 6 13.2324C5.38477 13.2324 4.80827 13.1185 4.27051 12.8906C3.7373 12.6628 3.26562 12.346 2.85547 11.9404C2.44987 11.5303 2.13314 11.0563 1.90527 10.5186C1.68197 9.98079 1.57031 9.4043 1.57031 8.78906C1.57031 8.16471 1.68197 7.58366 1.90527 7.0459C2.12858 6.50358 2.44076 6.02962 2.8418 5.62402C3.2474 5.21842 3.7168 4.90169 4.25 4.67383C4.7832 4.44596 5.35742 4.33203 5.97266 4.33203C6.16862 4.33203 6.35547 4.34115 6.5332 4.35938C6.71549 4.37305 6.88639 4.39583 7.0459 4.42773L5.35742 6.0957C5.29818 6.15951 5.2526 6.23014 5.2207 6.30762C5.1888 6.38053 5.17285 6.46257 5.17285 6.55371C5.17285 6.74056 5.23665 6.90007 5.36426 7.03223C5.49186 7.15983 5.64909 7.22363 5.83594 7.22363C6.02734 7.22363 6.18229 7.15983 6.30078 7.03223L8.95312 4.36621C9.09896 4.22038 9.17188 4.05176 9.17188 3.86035C9.17188 3.66895 9.09896 3.5026 8.95312 3.36133L6.30078 0.667969C6.18229 0.53125 6.02507 0.462891 5.8291 0.462891C5.64681 0.462891 5.49186 0.53125 5.36426 0.667969C5.23665 0.80013 5.17285 0.961914 5.17285 1.15332C5.17285 1.24447 5.1888 1.32878 5.2207 1.40625C5.2526 1.47917 5.29818 1.54753 5.35742 1.61133L6.84766 3.08105C6.72005 3.05827 6.58105 3.04004 6.43066 3.02637C6.28027 3.00814 6.1276 2.99902 5.97266 2.99902C5.17057 2.99902 4.41862 3.14941 3.7168 3.4502C3.01953 3.74642 2.40658 4.15885 1.87793 4.6875C1.35384 5.21615 0.941406 5.83138 0.640625 6.5332C0.344401 7.23047 0.196289 7.98242 0.196289 8.78906Z" fill="#F26419"/>
</svg>
