<svg width="18" height="13" viewBox="0 0 18 13" fill="none" xmlns="http://www.w3.org/2000/svg">
<path d="M9 12.0117C9.59245 12.0117 10.1576 11.9639 10.6953 11.8682C11.2376 11.777 11.7549 11.6494 12.2471 11.4854L10.9619 10.1934C10.6566 10.2799 10.3398 10.3483 10.0117 10.3984C9.68815 10.4486 9.35091 10.4736 9 10.4736C8.33919 10.4736 7.70801 10.3939 7.10645 10.2344C6.50488 10.0703 5.94206 9.8584 5.41797 9.59863C4.89844 9.33887 4.42676 9.05404 4.00293 8.74414C3.5791 8.42969 3.21452 8.11751 2.90918 7.80762C2.6084 7.49772 2.37598 7.21289 2.21191 6.95312C2.05241 6.69336 1.97266 6.48828 1.97266 6.33789C1.97266 6.20117 2.0752 5.98698 2.28027 5.69531C2.48991 5.39909 2.78385 5.07096 3.16211 4.71094C3.54492 4.34635 4.00065 3.99544 4.5293 3.6582L3.32617 2.44824C2.63346 2.90397 2.04329 3.38477 1.55566 3.89062C1.07259 4.39193 0.701172 4.86361 0.441406 5.30566C0.181641 5.74316 0.0517578 6.08724 0.0517578 6.33789C0.0517578 6.5612 0.147461 6.85514 0.338867 7.21973C0.534831 7.57975 0.817383 7.97396 1.18652 8.40234C1.55566 8.82617 2.00228 9.25 2.52637 9.67383C3.05501 10.0977 3.64974 10.4873 4.31055 10.8428C4.97591 11.1937 5.70052 11.4762 6.48438 11.6904C7.27279 11.9046 8.11133 12.0117 9 12.0117ZM9 0.677734C8.4349 0.677734 7.89486 0.723307 7.37988 0.814453C6.86491 0.901042 6.37044 1.02181 5.89648 1.17676L7.1748 2.45508C7.46647 2.38216 7.7627 2.3252 8.06348 2.28418C8.36426 2.23861 8.67643 2.21582 9 2.21582C9.66081 2.21582 10.292 2.29785 10.8936 2.46191C11.4951 2.62598 12.0579 2.84473 12.582 3.11816C13.1061 3.38704 13.5778 3.68099 13.9971 4C14.4209 4.31901 14.7832 4.63574 15.084 4.9502C15.3893 5.26009 15.6217 5.54036 15.7812 5.79102C15.9453 6.03711 16.0273 6.2194 16.0273 6.33789C16.0273 6.50195 15.9294 6.7321 15.7334 7.02832C15.5374 7.31999 15.2572 7.64128 14.8926 7.99219C14.5326 8.33854 14.1042 8.6735 13.6074 8.99707L14.79 10.1865C15.46 9.73991 16.0296 9.26823 16.499 8.77148C16.9684 8.27018 17.3262 7.80306 17.5723 7.37012C17.8229 6.93717 17.9482 6.5931 17.9482 6.33789C17.9482 6.11914 17.8525 5.82975 17.6611 5.46973C17.4743 5.10514 17.1986 4.71094 16.834 4.28711C16.4694 3.85872 16.0251 3.43262 15.501 3.00879C14.9814 2.58496 14.389 2.19759 13.7236 1.84668C13.0583 1.49577 12.3291 1.21322 11.5361 0.999023C10.7477 0.784831 9.90234 0.677734 9 0.677734ZM9 9.63965C9.20964 9.63965 9.40788 9.61914 9.59473 9.57812C9.78613 9.53711 9.96842 9.47786 10.1416 9.40039L5.9375 5.19629C5.86003 5.36947 5.80078 5.55176 5.75977 5.74316C5.71875 5.93457 5.69824 6.13509 5.69824 6.34473C5.69824 6.94173 5.84635 7.49089 6.14258 7.99219C6.4388 8.48893 6.83529 8.8877 7.33203 9.18848C7.83333 9.48926 8.38932 9.63965 9 9.63965ZM12.1035 7.36328C12.1673 7.20378 12.2174 7.03971 12.2539 6.87109C12.2904 6.69792 12.3086 6.52018 12.3086 6.33789C12.3086 5.72721 12.1605 5.1735 11.8643 4.67676C11.568 4.17546 11.1693 3.77897 10.668 3.4873C10.1712 3.19564 9.61751 3.0498 9.00684 3.0498C8.81999 3.0498 8.64225 3.06576 8.47363 3.09766C8.30501 3.12956 8.14095 3.17513 7.98145 3.23438L12.1035 7.36328ZM14.1885 12.1963C14.2933 12.2965 14.4186 12.3467 14.5645 12.3467C14.7148 12.3512 14.8424 12.3011 14.9473 12.1963C15.0521 12.0824 15.1045 11.9525 15.1045 11.8066C15.1045 11.6608 15.0521 11.5355 14.9473 11.4307L3.80469 0.301758C3.69987 0.19694 3.57227 0.144531 3.42188 0.144531C3.27148 0.144531 3.14388 0.19694 3.03906 0.301758C2.9388 0.402018 2.88867 0.529622 2.88867 0.68457C2.88867 0.834961 2.9388 0.960286 3.03906 1.06055L14.1885 12.1963Z" fill="#808080"/>
</svg>
