<svg width="6" height="9" viewBox="0 0 6 9" fill="none" xmlns="http://www.w3.org/2000/svg">
<path d="M5.50293 4.66504C5.50293 4.57715 5.48665 4.49577 5.4541 4.4209C5.42155 4.34603 5.36947 4.27441 5.29785 4.20605L1.72363 0.709961C1.61296 0.599284 1.47786 0.543945 1.31836 0.543945C1.20768 0.543945 1.10677 0.569987 1.01562 0.62207C0.927734 0.670898 0.857747 0.739258 0.805664 0.827148C0.753581 0.915039 0.727539 1.01432 0.727539 1.125C0.727539 1.28451 0.78776 1.42611 0.908203 1.5498L4.10645 4.66504L0.908203 7.78027C0.78776 7.90397 0.727539 8.04557 0.727539 8.20508C0.727539 8.3125 0.753581 8.41016 0.805664 8.49805C0.857747 8.58919 0.927734 8.66081 1.01562 8.71289C1.10677 8.76497 1.20768 8.79102 1.31836 8.79102C1.47786 8.79102 1.61296 8.73568 1.72363 8.625L5.29785 5.12402C5.37272 5.05566 5.4248 4.98405 5.4541 4.90918C5.48665 4.83431 5.50293 4.75293 5.50293 4.66504Z" fill="white"/>
</svg>
