<svg width="20" height="17" viewBox="0 0 20 17" fill="none" xmlns="http://www.w3.org/2000/svg">
<path d="M6.28983 16.2541C13.8374 16.2541 17.9648 10.0012 17.9648 4.57916C17.9648 4.40155 17.9611 4.2247 17.9532 4.04877C18.7543 3.46954 19.4507 2.74673 20 1.92398C19.2648 2.25082 18.4735 2.4707 17.6436 2.57004C18.4908 2.06192 19.1412 1.25839 19.4479 0.300446C18.6551 0.770416 17.7771 1.11191 16.8423 1.29639C16.0936 0.49881 15.0275 0 13.847 0C11.5811 0 9.7435 1.83762 9.7435 4.10278C9.7435 4.4249 9.77951 4.73801 9.84985 5.03845C6.43951 4.86679 3.41537 3.2341 1.39175 0.75119C1.03943 1.35757 0.836182 2.06207 0.836182 2.81372C0.836182 4.23721 1.56067 5.49408 2.6622 6.22925C1.98898 6.2085 1.35666 6.02371 0.803833 5.71609C0.803223 5.73334 0.803223 5.75012 0.803223 5.76843C0.803223 7.75574 2.21756 9.41498 4.09531 9.79095C3.75046 9.8848 3.3876 9.9353 3.01331 9.9353C2.74933 9.9353 2.49207 9.90936 2.24197 9.8613C2.76443 11.4917 4.27933 12.6781 6.07529 12.7113C4.67087 13.8121 2.90161 14.4678 0.978851 14.4678C0.648041 14.4678 0.321198 14.4489 0 14.411C1.81595 15.575 3.97247 16.2543 6.28998 16.2543" fill="white"/>
</svg>
