<svg width="18" height="15" viewBox="0 0 18 15" fill="none" xmlns="http://www.w3.org/2000/svg">
<path d="M2.55371 11.9863H15.4463C16.0524 11.9863 16.5104 11.8337 16.8203 11.5283C17.1302 11.2184 17.2852 10.7581 17.2852 10.1475V2.67578C17.2852 2.06055 17.1302 1.60026 16.8203 1.29492C16.5104 0.989583 16.0524 0.836914 15.4463 0.836914H2.55371C1.95215 0.836914 1.49414 0.989583 1.17969 1.29492C0.869792 1.60026 0.714844 2.06055 0.714844 2.67578V10.1475C0.714844 10.7581 0.869792 11.2184 1.17969 11.5283C1.49414 11.8337 1.95215 11.9863 2.55371 11.9863ZM5.6709 14.2695H12.3359C12.5046 14.2695 12.6481 14.208 12.7666 14.085C12.8896 13.9665 12.9512 13.8252 12.9512 13.6611C12.9512 13.4925 12.8896 13.3467 12.7666 13.2236C12.6481 13.1051 12.5046 13.0459 12.3359 13.0459H5.6709C5.50228 13.0459 5.35645 13.1051 5.2334 13.2236C5.11491 13.3467 5.05566 13.4925 5.05566 13.6611C5.05566 13.8252 5.11491 13.9665 5.2334 14.085C5.35645 14.208 5.50228 14.2695 5.6709 14.2695ZM6.74414 9.15625V3.66699C6.74414 3.48014 6.82161 3.35482 6.97656 3.29102C7.13607 3.22266 7.29329 3.23177 7.44824 3.31836L11.9873 5.98438C12.1514 6.08464 12.2334 6.22819 12.2334 6.41504C12.238 6.59733 12.1582 6.73861 11.9941 6.83887L7.44824 9.49805C7.29329 9.58464 7.13607 9.59603 6.97656 9.53223C6.82161 9.46842 6.74414 9.3431 6.74414 9.15625Z" fill="white"/>
</svg>
